<svg xmlns="http://www.w3.org/2000/svg" viewBox="0 0 501.73 136.29">
<path d="M9.88.16C13.3-.02 16.73.05 20.15.05h78.94c3.13 0 6.28.05 9.41-.04 8.23.28 16.48-.16 24.71.15-3.18 3.21-7.85 6.42-11.39 9.44L77.56 47.32c-1.82 1.54-4.52 4.1-6.46 5.28-1.82-1.9-4.08-3.51-6.08-5.21L51.47 35.94 13.67 3.73c-1.25-1.08-2.8-2.25-3.79-3.57Zm55.31 136.02-.05.05c-.54-.32-1.06-.89-1.57-1.28L16.94 98.76a385.14 385.14 0 0 0-5.54-4.23C2.16 87.61.02 84.03.02 72.92V12.13c0-1.37-.08-2.78.08-4.14 1.16.3 3.75 2.85 4.76 3.7l47.61 40.36c2.45 2.08 10.63 9.63 12.73 10.65-.34 4.19-.13 8.49-.13 12.7v46.86c0 4.62-.19 9.32.12 13.93Zm11.86-72.9c.82-.96 1.86-1.78 2.82-2.6l49.92-42.28c4.03-3.38 8.12-7.29 12.36-10.37.17.16.06.28.05.45h.07l-.07 61.02c0 12.75 0 16.51-10.92 25.08l-45.91 35.56c-2.61 2.05-5.12 4.43-7.97 6.15l-.16-.05c-.32-.74-.12-10.99-.12-12.55V70.75c0-2.48.1-5-.07-7.47Z" style="fill:#ccc"/>
<path d="M175.12 88.53V16.6h10.03v33.92l16.52-33.92h9.32l-14.21 31.7 16.52 40.23h-9.77l-13.76-33.74-4.62 8.35v25.4h-10.03Zm56.13.71c-3.79 0-6.78-.77-8.97-2.31-2.19-1.54-3.74-3.73-4.66-6.57-.92-2.84-1.38-6.19-1.38-10.03V55.41c0-3.85.46-7.19 1.38-10.04.92-2.84 2.47-5.03 4.66-6.57s5.18-2.31 8.97-2.31 6.76.77 8.92 2.31 3.7 3.73 4.62 6.57c.92 2.84 1.38 6.19 1.38 10.04v14.92c0 3.85-.46 7.19-1.38 10.03-.92 2.84-2.46 5.03-4.62 6.57s-5.14 2.31-8.92 2.31Zm0-7.02c1.83 0 3.12-.53 3.86-1.6.74-1.07 1.18-2.47 1.33-4.22.15-1.75.22-3.57.22-5.46V54.87c0-1.95-.07-3.79-.22-5.51-.15-1.72-.59-3.12-1.33-4.22-.74-1.09-2.03-1.64-3.86-1.64s-3.14.55-3.91 1.64c-.77 1.1-1.23 2.5-1.38 4.22-.15 1.72-.22 3.55-.22 5.51v16.07c0 1.89.07 3.71.22 5.46s.61 3.15 1.38 4.22c.77 1.07 2.07 1.6 3.91 1.6Zm23.62 6.31V37.2h9.5v5.06c1.72-1.6 3.61-2.96 5.68-4.08s4.35-1.69 6.84-1.69c2.07 0 3.66.53 4.75 1.6 1.1 1.06 1.87 2.4 2.31 4 .44 1.6.67 3.23.67 4.88v41.56h-9.5V49.72c0-1.84-.27-3.26-.8-4.26-.53-1.01-1.63-1.51-3.28-1.51-1.07 0-2.18.31-3.33.93-1.15.62-2.26 1.38-3.33 2.26v41.38h-9.5Zm50.88.71c-4.2 0-7.58-1.32-10.12-3.95-2.55-2.63-4-6.11-4.35-10.43l7.9-2.4c.47 3.26 1.27 5.7 2.4 7.33s2.78 2.44 4.97 2.44c1.72 0 3.02-.49 3.91-1.46.89-.98 1.33-2.29 1.33-3.95 0-1.48-.33-2.81-.98-4-.65-1.18-1.72-2.4-3.2-3.64l-8.79-7.55a23.66 23.66 0 0 1-4.48-5.15c-1.21-1.89-1.82-4.35-1.82-7.37 0-2.72.55-5.02 1.64-6.88 1.09-1.86 2.63-3.29 4.62-4.26 1.98-.98 4.31-1.46 6.97-1.46 4.26 0 7.52 1.32 9.77 3.95s3.55 5.82 3.91 9.55l-6.75 2.4c-.24-1.78-.59-3.33-1.07-4.66-.47-1.33-1.15-2.37-2.04-3.11-.89-.74-2.04-1.11-3.46-1.11-1.54 0-2.77.52-3.69 1.55-.92 1.04-1.38 2.26-1.38 3.69 0 .89.19 1.76.58 2.62.39.86 1.05 1.7 2 2.53l9.06 8.35c1.24 1.13 2.41 2.34 3.51 3.64 1.09 1.3 2 2.78 2.71 4.44.71 1.66 1.07 3.58 1.07 5.77 0 2.9-.59 5.33-1.78 7.28-1.18 1.95-2.84 3.42-4.97 4.4-2.13.98-4.62 1.47-7.46 1.47Zm34.98 0c-2.66 0-4.81-.5-6.44-1.51-1.63-1.01-2.81-2.43-3.55-4.26-.74-1.84-1.11-4-1.11-6.48V43.51h-5.42v-6.3h5.42V22.2h9.5v15.01h8.26v6.3h-8.26v32.86c0 2.01.33 3.45.98 4.31.65.86 1.89 1.29 3.73 1.29.47 0 1.02-.03 1.64-.09.62-.06 1.23-.12 1.82-.18v7.01c-1.18.18-2.28.31-3.29.4-1.01.09-2.1.13-3.29.13Zm14.48-.71V16.6h16.52c3.26 0 6.08.36 8.48 1.07 2.4.71 4.4 1.81 5.99 3.29 1.6 1.48 2.78 3.36 3.55 5.64s1.15 4.96 1.15 8.04-.37 5.52-1.11 7.68c-.74 2.16-1.86 3.86-3.37 5.11-1.51 1.24-3.45 2.04-5.82 2.4 2.9.65 5.24 1.76 7.01 3.33 1.78 1.57 3.09 3.58 3.95 6.04.86 2.46 1.29 5.4 1.29 8.83 0 3.08-.36 5.89-1.07 8.44-.71 2.55-1.82 4.71-3.33 6.48-1.51 1.78-3.43 3.15-5.77 4.13-2.34.98-5.11 1.47-8.3 1.47H355.2Zm10.03-7.19h6.75c4.5 0 7.5-1.05 9.01-3.15 1.51-2.1 2.26-5.49 2.26-10.17 0-3.02-.4-5.55-1.2-7.59-.8-2.04-2.07-3.58-3.82-4.62s-4.1-1.55-7.06-1.55h-5.95v27.08Zm0-34.72h5.95c2.84 0 5.06-.4 6.66-1.2 1.6-.8 2.72-2.09 3.38-3.86.65-1.78.98-4.08.98-6.93 0-3.31-.5-5.71-1.51-7.19-1.01-1.48-2.57-2.41-4.71-2.8-2.13-.38-4.91-.58-8.35-.58h-2.4v22.55Zm49.91 42.62c-4.02 0-7.13-.78-9.32-2.35-2.19-1.57-3.71-3.88-4.57-6.93-.86-3.05-1.29-6.79-1.29-11.23V57.01c0-4.56.44-8.35 1.33-11.37.89-3.02 2.44-5.3 4.66-6.84s5.28-2.31 9.19-2.31c4.32 0 7.5.89 9.55 2.66 2.04 1.78 3.39 4.34 4.04 7.68.65 3.34.98 7.36.98 12.03v4.17h-20.25v10.3c0 2.07.19 3.76.58 5.06.39 1.3 1.01 2.26 1.87 2.89.86.62 1.97.93 3.33.93s2.5-.34 3.24-1.02c.74-.68 1.24-1.66 1.51-2.93.27-1.27.4-2.77.4-4.49v-3.11h9.23v1.95c0 5.15-1.09 9.21-3.28 12.17-2.19 2.96-5.92 4.44-11.19 4.44Zm-5.69-31.35h10.92v-4.62c0-2.13-.12-3.92-.36-5.37-.24-1.45-.73-2.55-1.46-3.29-.74-.74-1.91-1.11-3.51-1.11s-2.71.36-3.51 1.07c-.8.71-1.35 1.91-1.64 3.6-.3 1.69-.44 4.01-.44 6.97v2.75Zm29.13 30.64V37.2h9.5v7.28c1.9-3.14 3.79-5.24 5.68-6.3 1.89-1.07 3.79-1.6 5.68-1.6h.67c.21 0 .49.03.84.09v10.48c-.71-.3-1.52-.55-2.44-.75-.92-.21-1.85-.31-2.8-.31-1.48 0-2.83.34-4.04 1.02-1.21.68-2.41 2-3.6 3.95v37.47h-9.5Zm41.29 16.07c-3.14 0-5.97-.34-8.48-1.02-2.51-.68-4.5-1.73-5.95-3.15-1.45-1.42-2.18-3.29-2.18-5.59 0-1.78.41-3.33 1.24-4.66.83-1.33 1.89-2.47 3.2-3.42 1.3-.95 2.66-1.69 4.08-2.22l4.44.62c-.77.71-1.51 1.44-2.22 2.18-.71.74-1.3 1.51-1.78 2.31-.47.8-.71 1.67-.71 2.62 0 1.54.67 2.69 2 3.46s3.71 1.15 7.15 1.15 5.88-.4 7.5-1.2c1.63-.8 2.44-2.06 2.44-3.77 0-1.07-.21-1.94-.62-2.62s-1.12-1.23-2.13-1.64c-1.01-.42-2.46-.71-4.35-.89l-11.19-1.42c-2.31-.3-4.03-1.04-5.15-2.22-1.12-1.18-1.69-2.49-1.69-3.91 0-2.13.61-3.94 1.82-5.42s2.86-3.14 4.93-4.97l3.2 2.49c-.36.47-.8 1.14-1.33 2-.53.86-.8 1.7-.8 2.53 0 .65.34 1.18 1.02 1.6.68.41 1.76.68 3.24.8l8.61.8c4.03.36 7.01 1.57 8.97 3.64 1.95 2.07 2.93 5.03 2.93 8.88 0 2.84-.67 5.24-2 7.19-1.33 1.95-3.33 3.42-5.99 4.39-2.66.98-6.07 1.47-10.21 1.47Zm.36-31.88c-3.49 0-6.33-.77-8.52-2.31-2.19-1.54-3.8-3.67-4.84-6.39-1.04-2.72-1.55-5.83-1.55-9.32 0-3.97.56-7.3 1.69-9.99 1.12-2.69 2.8-4.73 5.02-6.13 2.22-1.39 4.96-2.09 8.21-2.09s6.13.84 8.26 2.53 3.7 3.92 4.71 6.7c1.01 2.78 1.51 5.86 1.51 9.24s-.46 6.59-1.38 9.28c-.92 2.69-2.43 4.78-4.53 6.26-2.1 1.48-4.96 2.22-8.57 2.22Zm0-6.83c1.3 0 2.34-.25 3.11-.76.77-.5 1.35-1.23 1.73-2.17.38-.95.65-2.12.8-3.51.15-1.39.22-2.98.22-4.75s-.06-3.37-.18-4.79-.39-2.62-.8-3.6c-.41-.98-1.01-1.73-1.78-2.27-.77-.53-1.78-.8-3.02-.8-1.3 0-2.35.25-3.15.75-.8.5-1.42 1.24-1.86 2.22-.44.98-.74 2.18-.89 3.6-.15 1.42-.22 3.05-.22 4.88 0 1.6.07 3.08.22 4.44.15 1.36.43 2.55.84 3.55.41 1.01 1.02 1.79 1.82 2.35s1.85.84 3.15.84Zm12.7-20.07-2.22-3.55c.47-.83 1.54-1.86 3.2-3.11 1.66-1.24 3.43-2.28 5.33-3.11l2.49 6.21c-.83.18-1.94.5-3.33.98-1.39.47-2.65.96-3.77 1.46-1.13.5-1.69.87-1.69 1.11Z" style="fill:#ccc"/></svg>